<svg width="120" height="40" viewBox="-253 0 1013 507" fill="none" xmlns="http://www.w3.org/2000/svg">
<defs>
  <mask id="cutout">
    <rect width="507" height="507" fill="white"/>
    <path d="M332.617 406.213V384.825H317.914C292.552 384.825 280.912 369.749 280.912 347.561V123.39H285.272C332.77 123.39 362.934 154.911 362.934 201.259V205.412H381V102H126.008V205.412H144.073V201.259C144.073 154.911 174.237 123.39 221.735 123.39H226.096V347.561C226.096 369.749 214.456 384.825 189.094 384.825H174.391V406.213H332.617Z" fill="black"/>
    <path d="M380.999 284.841H320.365V224H380.999V284.841Z" fill="black"/>
    <path d="M186.634 284.841H126V224H186.634V284.841Z" fill="black"/>
  </mask>
</defs>
<rect width="507" height="507" fill="white" mask="url(#cutout)"/>
</svg>
